<?xml version="1.0" encoding="utf-8"?>
<!-- Generator: Adobe Illustrator 26.0.2, SVG Export Plug-In . SVG Version: 6.00 Build 0)  -->
<svg version="1.1" xmlns="http://www.w3.org/2000/svg" xmlns:xlink="http://www.w3.org/1999/xlink" x="0px" y="0px"
	 viewBox="0 0 90 30" style="enable-background:new 0 0 90 30;" xml:space="preserve">
<style type="text/css">
	.st0{fill:#A8CB3A;}
	.st1{fill:#FFFFFF;}
</style>
<g id="Guides">
</g>
<g id="Image">
</g>
<g id="Paths">
	<g id="Page-1">
		<g id="nutanix-seeklogo.com">
			<path id="Fill-1" class="st0" d="M70.9,21c0,0-0.1,0.1-0.2,0.1h-3c-0.1,0-0.2,0-0.2-0.1c0-0.1,0-0.2,0.1-0.3L73,16
				c0.1-0.1,0.1-0.3,0-0.4l-5.5-4.7c-0.1-0.1-0.1-0.2-0.1-0.2c0-0.1,0.1-0.2,0.2-0.2h2.9c0.1,0,0.1,0,0.2,0.1l6,5l0,0
				c0.1,0.1,0.1,0.2,0,0.3l-0.1,0L70.9,21"/>
			<path id="Fill-2" class="st1" d="M12.1,10.5h-1.8c-0.2,0-0.4,0.2-0.4,0.4v5.9c0,0.1-0.2,0.2-0.3,0.1l-6.8-5.9
				c-0.5-0.4-1-0.6-1.5-0.6C0.8,10.5,0,10.7,0,12v8.6c0,0.2,0.2,0.4,0.4,0.4h1.8c0.2,0,0.4-0.2,0.4-0.4v-6c0-0.1,0.2-0.2,0.3-0.1
				l6.9,6c0.4,0.4,0.9,0.6,1.4,0.6s1.3-0.2,1.3-1.5v-8.6C12.5,10.7,12.3,10.5,12.1,10.5"/>
			<path id="Fill-3" class="st1" d="M25.5,10.5h-2.1c-0.1,0-0.2,0.1-0.2,0.2v7c0,0.6-0.7,0.9-2.1,0.9h-2.9c-1.4,0-2.1-0.3-2.1-0.9
				v-7c0-0.1-0.1-0.2-0.2-0.2h-2.2c-0.1,0-0.2,0.1-0.2,0.2v7.1c0,0.5,0.1,0.9,0.2,1.2c0.2,0.4,0.4,0.6,0.7,0.9
				c0.3,0.2,0.6,0.4,0.9,0.5c0.3,0.1,0.7,0.2,1.1,0.3c0.4,0.1,0.7,0.1,1.1,0.1c0.4,0,0.7,0,1.1,0h2.4c1.7,0,3-0.2,3.8-0.7
				c0.8-0.5,1.2-1.3,1.2-2.4v-7.1C25.8,10.7,25.7,10.5,25.5,10.5"/>
			<path id="Fill-4" class="st1" d="M38,12.4V11c0-0.3-0.2-0.5-0.5-0.5H27.1c-0.3,0-0.5,0.2-0.5,0.5v1.4c0,0.3,0.2,0.5,0.5,0.5h3.7
				c0.1,0,0.2,0.1,0.2,0.2v7.4c0,0.3,0.2,0.5,0.5,0.5h1.7c0.3,0,0.5-0.2,0.5-0.5v-7.4c0-0.1,0.1-0.2,0.2-0.2h3.7
				C37.8,12.9,38,12.7,38,12.4"/>
			<path id="Fill-5" class="st1" d="M40.8,15.7l1.3-1.9c0.1-0.1,0.2-0.1,0.3,0l1.4,1.9c0.1,0.1,0,0.2-0.1,0.2h-2.7
				C40.8,15.9,40.7,15.8,40.8,15.7z M43.7,11.2c-0.4-0.5-0.8-0.8-1.4-0.8c-0.6,0-1.1,0.3-1.4,0.8l-6.4,9.3c-0.1,0.1-0.1,0.2,0,0.3
				c0,0.1,0.1,0.1,0.2,0.1h2.5c0.1,0,0.2,0,0.2-0.1l1.6-2.5c0,0,0.1-0.1,0.2-0.1c0,0,5.4,0,6.2,0c0.1,0,0.1,0,0.2,0.1l1.7,2.5
				c0,0.1,0.1,0.1,0.2,0.1h2.4c0.1,0,0.2,0,0.2-0.1c0-0.1,0-0.2,0-0.2L43.7,11.2L43.7,11.2z"/>
			<path id="Fill-6" class="st1" d="M62.8,10.5h-1.9c-0.2,0-0.4,0.2-0.4,0.4v6c0,0.1-0.1,0.2-0.2,0.1l-6.9-6c-0.5-0.4-1-0.6-1.5-0.6
				c-0.5,0-1.2,0.2-1.2,1.5v8.6c0,0.2,0.2,0.4,0.4,0.4h1.9c0.2,0,0.4-0.2,0.4-0.4v-6c0-0.1,0.1-0.2,0.2-0.1l6.9,6.1
				c0.4,0.4,0.9,0.6,1.4,0.6c0.5,0,1.3-0.2,1.3-1.5v-8.6C63.1,10.7,63,10.5,62.8,10.5"/>
			<path id="Fill-7" class="st1" d="M66.4,10.5h-2.2c-0.1,0-0.2,0.1-0.2,0.2v9.9c0,0.1,0.1,0.2,0.2,0.2h2.2c0.1,0,0.2-0.1,0.2-0.2
				v-9.9C66.6,10.7,66.5,10.5,66.4,10.5"/>
			<path id="Fill-8" class="st1" d="M77.7,14.9c0.1,0.1,0.2,0.1,0.3,0l4.8-4c0.1-0.1,0.1-0.2,0.1-0.2c0-0.1-0.1-0.2-0.2-0.2h-2.9
				c-0.1,0-0.1,0-0.2,0.1l-3.4,2.7c-0.1,0.1-0.1,0.3,0,0.4L77.7,14.9"/>
			<path id="Fill-9" class="st1" d="M77.7,16.6c0.1-0.1,0.2-0.1,0.3,0l4.9,4c0.1,0.1,0.1,0.2,0.1,0.2c0,0.1-0.1,0.2-0.2,0.2h-2.9
				c-0.1,0-0.1,0-0.2-0.1l-3.4-2.8c-0.1-0.1-0.1-0.3,0-0.4L77.7,16.6"/>
		</g>
	</g>
</g>
</svg>
