<?xml version="1.0" encoding="UTF-8" standalone="no"?>
<!DOCTYPE svg PUBLIC "-//W3C//DTD SVG 1.1//EN" "http://www.w3.org/Graphics/SVG/1.1/DTD/svg11.dtd">
<svg width="100%" height="100%" viewBox="0 0 34 34" version="1.1" xmlns="http://www.w3.org/2000/svg" xmlns:xlink="http://www.w3.org/1999/xlink" xml:space="preserve" xmlns:serif="http://www.serif.com/" style="fill-rule:evenodd;clip-rule:evenodd;stroke-linejoin:round;stroke-miterlimit:2;">
    <g transform="matrix(1,0,0,1,-49.524,0)">
        <g id="nutanix-circular-dark" transform="matrix(0.85,0,0,0.85,49.524,0)">
            <rect x="0" y="0" width="40" height="40" style="fill:none;"/>
            <clipPath id="_clip1">
                <rect x="0" y="0" width="40" height="40"/>
            </clipPath>
            <g clip-path="url(#_clip1)">
                <g transform="matrix(1.18747,0,0,1.18747,-3.83914,-7.43594)">
                    <circle cx="20.076" cy="23.104" r="16.842" style="fill:rgb(24,47,62);"/>
                </g>
                <g transform="matrix(1.0824,0,0,1.0824,-1.83327,-1.83327)">
                    <path id="Fill-1" d="M32.938,28.554C33.012,28.621 33.036,28.73 33.004,28.82C32.971,28.92 32.878,28.98 32.771,28.98L27.417,28.98C27.357,28.98 27.297,28.96 27.257,28.92L21.377,23.831C21.324,23.785 21.29,23.718 21.29,23.645C21.29,23.572 21.324,23.505 21.377,23.459L24.051,21.144C24.144,21.064 24.284,21.064 24.377,21.144L32.931,28.548C32.933,28.549 32.937,28.553 32.938,28.554ZM24.044,18.863L24.044,18.856L21.37,16.541C21.317,16.495 21.284,16.428 21.284,16.355C21.284,16.282 21.317,16.215 21.37,16.169L27.25,11.08C27.29,11.04 27.35,11.02 27.41,11.02L32.765,11.02C32.871,11.02 32.964,11.08 32.997,11.18C33.031,11.273 33.004,11.386 32.924,11.453L24.364,18.863C24.317,18.902 24.257,18.922 24.204,18.922C24.151,18.922 24.091,18.902 24.044,18.863Z" style="fill:rgb(175,209,53);"/>
                    <path id="Fill-11" serif:id="Fill-1" d="M22.92,20C22.92,19.927 22.887,19.86 22.834,19.814L12.75,11.08C12.703,11.04 12.65,11.02 12.59,11.02L7.229,11.02C7.122,11.02 7.029,11.087 6.996,11.18C6.963,11.28 6.989,11.386 7.069,11.453L16.94,20L7.069,28.547C6.989,28.614 6.963,28.727 6.996,28.82C7.029,28.92 7.122,28.98 7.229,28.98L12.583,28.98C12.643,28.98 12.703,28.96 12.743,28.92L22.834,20.186C22.887,20.14 22.92,20.073 22.92,20Z" style="fill:rgb(3,78,161);fill-rule:nonzero;"/>
                </g>
            </g>
        </g>
    </g>
</svg>
